<mxfile host="app.diagrams.net" modified="2023-06-06T17:59:27.693Z" agent="Mozilla/5.0 (Windows NT 10.0; Win64; x64) AppleWebKit/537.36 (KHTML, like Gecko) Chrome/114.0.0.0 Safari/537.36" etag="gsEOqFCfpWaVO9ate9RQ" version="21.3.6" type="github">
  <diagram name="Страница 1" id="62127BnPsHwzciFZ_1Po">
    <mxGraphModel dx="1591" dy="880" grid="1" gridSize="10" guides="1" tooltips="1" connect="1" arrows="1" fold="1" page="1" pageScale="1" pageWidth="827" pageHeight="1169" math="0" shadow="0">
      <root>
        <mxCell id="0" />
        <mxCell id="1" parent="0" />
        <mxCell id="5GAbooudRVSwDortp3kw-1" value="item 1" style="rounded=0;whiteSpace=wrap;html=1;" vertex="1" parent="1">
          <mxGeometry x="80" y="41" width="120" height="40" as="geometry" />
        </mxCell>
        <mxCell id="5GAbooudRVSwDortp3kw-2" value="item 2" style="rounded=0;whiteSpace=wrap;html=1;" vertex="1" parent="1">
          <mxGeometry x="80" y="90" width="120" height="40" as="geometry" />
        </mxCell>
        <mxCell id="5GAbooudRVSwDortp3kw-3" value="item 5" style="rounded=0;whiteSpace=wrap;html=1;" vertex="1" parent="1">
          <mxGeometry x="80" y="240" width="120" height="40" as="geometry" />
        </mxCell>
        <mxCell id="5GAbooudRVSwDortp3kw-4" value="item 3" style="rounded=0;whiteSpace=wrap;html=1;" vertex="1" parent="1">
          <mxGeometry x="80" y="140" width="120" height="40" as="geometry" />
        </mxCell>
        <mxCell id="5GAbooudRVSwDortp3kw-5" value="item 4" style="rounded=0;whiteSpace=wrap;html=1;" vertex="1" parent="1">
          <mxGeometry x="80" y="190" width="120" height="40" as="geometry" />
        </mxCell>
        <mxCell id="5GAbooudRVSwDortp3kw-6" value="item 6" style="rounded=0;whiteSpace=wrap;html=1;" vertex="1" parent="1">
          <mxGeometry x="80" y="290" width="120" height="40" as="geometry" />
        </mxCell>
        <mxCell id="5GAbooudRVSwDortp3kw-9" value="item 7" style="rounded=0;whiteSpace=wrap;html=1;" vertex="1" parent="1">
          <mxGeometry x="80" y="340" width="120" height="40" as="geometry" />
        </mxCell>
        <mxCell id="5GAbooudRVSwDortp3kw-10" value="item 8" style="rounded=0;whiteSpace=wrap;html=1;" vertex="1" parent="1">
          <mxGeometry x="80" y="390" width="120" height="40" as="geometry" />
        </mxCell>
        <mxCell id="5GAbooudRVSwDortp3kw-11" value="item 9" style="rounded=0;whiteSpace=wrap;html=1;" vertex="1" parent="1">
          <mxGeometry x="80" y="440" width="120" height="40" as="geometry" />
        </mxCell>
        <mxCell id="5GAbooudRVSwDortp3kw-12" value="item 10" style="rounded=0;whiteSpace=wrap;html=1;" vertex="1" parent="1">
          <mxGeometry x="80" y="490" width="120" height="40" as="geometry" />
        </mxCell>
        <mxCell id="5GAbooudRVSwDortp3kw-13" value="item 11" style="rounded=0;whiteSpace=wrap;html=1;" vertex="1" parent="1">
          <mxGeometry x="80" y="540" width="120" height="40" as="geometry" />
        </mxCell>
        <mxCell id="5GAbooudRVSwDortp3kw-15" value="item 12" style="rounded=0;whiteSpace=wrap;html=1;" vertex="1" parent="1">
          <mxGeometry x="80" y="590" width="120" height="40" as="geometry" />
        </mxCell>
        <mxCell id="5GAbooudRVSwDortp3kw-16" value="item 14" style="rounded=0;whiteSpace=wrap;html=1;" vertex="1" parent="1">
          <mxGeometry x="80" y="690" width="120" height="40" as="geometry" />
        </mxCell>
        <mxCell id="5GAbooudRVSwDortp3kw-17" value="item 13" style="rounded=0;whiteSpace=wrap;html=1;" vertex="1" parent="1">
          <mxGeometry x="80" y="640" width="120" height="40" as="geometry" />
        </mxCell>
        <mxCell id="5GAbooudRVSwDortp3kw-18" value="item 15" style="rounded=0;whiteSpace=wrap;html=1;" vertex="1" parent="1">
          <mxGeometry x="80" y="740" width="120" height="40" as="geometry" />
        </mxCell>
        <mxCell id="5GAbooudRVSwDortp3kw-19" value="item 16" style="rounded=0;whiteSpace=wrap;html=1;" vertex="1" parent="1">
          <mxGeometry x="80" y="790" width="120" height="40" as="geometry" />
        </mxCell>
        <mxCell id="5GAbooudRVSwDortp3kw-20" value="item 17" style="rounded=0;whiteSpace=wrap;html=1;" vertex="1" parent="1">
          <mxGeometry x="80" y="840" width="120" height="40" as="geometry" />
        </mxCell>
        <mxCell id="5GAbooudRVSwDortp3kw-21" value="" style="endArrow=none;html=1;rounded=0;exitX=0;exitY=1;exitDx=0;exitDy=0;entryX=0;entryY=0;entryDx=0;entryDy=0;" edge="1" parent="1" source="5GAbooudRVSwDortp3kw-3" target="5GAbooudRVSwDortp3kw-1">
          <mxGeometry width="50" height="50" relative="1" as="geometry">
            <mxPoint x="40" y="280" as="sourcePoint" />
            <mxPoint x="40" y="40" as="targetPoint" />
            <Array as="points">
              <mxPoint x="30" y="160" />
            </Array>
          </mxGeometry>
        </mxCell>
        <mxCell id="5GAbooudRVSwDortp3kw-22" value="1 page" style="edgeLabel;html=1;align=center;verticalAlign=middle;resizable=0;points=[];" vertex="1" connectable="0" parent="5GAbooudRVSwDortp3kw-21">
          <mxGeometry x="0.25" y="2" relative="1" as="geometry">
            <mxPoint as="offset" />
          </mxGeometry>
        </mxCell>
        <mxCell id="5GAbooudRVSwDortp3kw-23" value="" style="endArrow=none;html=1;rounded=0;exitX=0;exitY=1;exitDx=0;exitDy=0;entryX=0;entryY=0;entryDx=0;entryDy=0;" edge="1" parent="1">
          <mxGeometry width="50" height="50" relative="1" as="geometry">
            <mxPoint x="80" y="529" as="sourcePoint" />
            <mxPoint x="80" y="290" as="targetPoint" />
            <Array as="points">
              <mxPoint x="30" y="409" />
            </Array>
          </mxGeometry>
        </mxCell>
        <mxCell id="5GAbooudRVSwDortp3kw-24" value="2 page" style="edgeLabel;html=1;align=center;verticalAlign=middle;resizable=0;points=[];" vertex="1" connectable="0" parent="5GAbooudRVSwDortp3kw-23">
          <mxGeometry x="0.25" y="2" relative="1" as="geometry">
            <mxPoint as="offset" />
          </mxGeometry>
        </mxCell>
        <mxCell id="5GAbooudRVSwDortp3kw-25" value="" style="endArrow=none;html=1;rounded=0;exitX=0;exitY=1;exitDx=0;exitDy=0;entryX=0;entryY=0;entryDx=0;entryDy=0;" edge="1" parent="1">
          <mxGeometry width="50" height="50" relative="1" as="geometry">
            <mxPoint x="80" y="779" as="sourcePoint" />
            <mxPoint x="80" y="540" as="targetPoint" />
            <Array as="points">
              <mxPoint x="30" y="659" />
            </Array>
          </mxGeometry>
        </mxCell>
        <mxCell id="5GAbooudRVSwDortp3kw-26" value="3 page" style="edgeLabel;html=1;align=center;verticalAlign=middle;resizable=0;points=[];" vertex="1" connectable="0" parent="5GAbooudRVSwDortp3kw-25">
          <mxGeometry x="0.25" y="2" relative="1" as="geometry">
            <mxPoint as="offset" />
          </mxGeometry>
        </mxCell>
        <mxCell id="5GAbooudRVSwDortp3kw-27" value="" style="endArrow=none;html=1;rounded=0;exitX=0;exitY=1;exitDx=0;exitDy=0;entryX=0;entryY=0;entryDx=0;entryDy=0;" edge="1" parent="1" source="5GAbooudRVSwDortp3kw-20" target="5GAbooudRVSwDortp3kw-19">
          <mxGeometry width="50" height="50" relative="1" as="geometry">
            <mxPoint x="60" y="1009" as="sourcePoint" />
            <mxPoint x="60" y="770" as="targetPoint" />
            <Array as="points">
              <mxPoint x="20" y="830" />
            </Array>
          </mxGeometry>
        </mxCell>
        <mxCell id="5GAbooudRVSwDortp3kw-28" value="4 page" style="edgeLabel;html=1;align=center;verticalAlign=middle;resizable=0;points=[];" vertex="1" connectable="0" parent="5GAbooudRVSwDortp3kw-27">
          <mxGeometry x="0.25" y="2" relative="1" as="geometry">
            <mxPoint as="offset" />
          </mxGeometry>
        </mxCell>
      </root>
    </mxGraphModel>
  </diagram>
</mxfile>
